<svg width="95" height="95" viewBox="0 0 50 50" xmlns="http://www.w3.org/2000/svg" stroke="#000" stroke-width=".35"><path d="M25 10c-2.336 0-4.402.977-6 2.438-.645-.215-1.297-.438-2-.438-2.613 0-4.922 1.602-6.5 3.969-1.45 2.172-2.332 5.035-2.469 8.187-2.289.578-4 2.668-4 5.125 0 2.215 1.43 4.04 3.375 4.813l2.438 6.343.031.094h.031a4.28 4.28 0 0 0 1.156 1.813l-1.75 3.531c-.699 1.395-.144 3.113 1.25 3.813.403.203.852.312 1.282.312 1.043 0 2.066-.574 2.562-1.563L16.594 44h16.812l2.188 4.438c.496.988 1.52 1.562 2.562 1.562.43 0 .88-.11 1.282-.313 1.394-.699 1.949-2.417 1.25-3.812l-1.75-3.531a4.28 4.28 0 0 0 1.156-1.813h.031l.031-.093 2.438-6.344c1.945-.774 3.375-2.598 3.375-4.813 0-2.457-1.711-4.547-4-5.125-.137-3.152-1.02-6.015-2.469-8.187C37.922 13.602 35.613 12 33 12c-.703 0-1.355.223-2 .438C29.402 10.976 27.336 10 25 10zm0 2c1.996 0 3.785.82 5.063 2.156l.468.531.657-.28C31.785 14.147 32.377 14 33 14c1.805 0 3.496 1.086 4.813 3.063 1.183 1.777 2 4.246 2.156 7a5.266 5.266 0 0 0-4.157 3.312h-.03l-1.532 3.5a9.47 9.47 0 0 0-1.438-.688c-1.62-.613-4.09-1.187-7.687-1.187-3.598 0-6.137.574-7.813 1.188-.675.246-1.125.5-1.53.718l-1.47-3.25h-.03a5.261 5.261 0 0 0-4.25-3.593c.155-2.754.972-5.223 2.155-7C13.505 15.085 15.195 14 17 14c.621 0 1.215.148 1.813.406l.656.281.468-.53A6.962 6.962 0 0 1 25 12zM9.219 26h.094c1.488 0 2.726.984 3.124 2.344v.062l.032.063 1.937 4.281.469 1.031.969-.593c.21-.13.133-.098.219-.157.085-.058.207-.152.375-.25.332-.195.84-.453 1.562-.718C19.445 31.535 21.742 31 25.125 31s5.59.543 6.969 1.063c.687.261 1.16.496 1.468.687.153.094.266.191.344.25.04.027.098.043.125.063.028.019-.008.011.125.093l.969.594.469-1.031 2.031-4.532v-.03l.031-.032C38.121 26.883 39.277 26 40.688 26h.124a3.282 3.282 0 0 1 3.157 3.281c0 1.508-1.024 2.742-2.407 3.125l-.5.125-.156.469-2.656 6.813v.03l-.031.032c-.293 1.02-1.157 1.547-2.125 1.844a5.99 5.99 0 0 1-1.688.281 1.014 1.014 0 0 0-.812 0H16.375a.997.997 0 0 0-.75 0c-.164 0-.86-.016-1.719-.281-.969-.297-1.832-.824-2.125-1.844l-.031-.031v-.063L9.094 33l-.156-.469-.5-.125C7.05 32.023 6.03 30.79 6.03 29.281A3.277 3.277 0 0 1 9.22 26zm3.562 17.406c.176.07.364.168.531.219.403.125.778.195 1.126.25l-1.844 3.656a.817.817 0 0 1-.75.469.832.832 0 0 1-.375-.094.817.817 0 0 1-.375-1.125zm24.438 0 1.687 3.375c.215.43.055.91-.375 1.125a.832.832 0 0 1-.375.094.817.817 0 0 1-.75-.469l-1.843-3.656a7.793 7.793 0 0 0 1.124-.25c.168-.05.356-.148.532-.219z"/></svg>