<svg height="800" width="800" xmlns="http://www.w3.org/2000/svg" viewBox="0 0 512.002 512.002" xml:space="preserve" stroke="#000" stroke-width=".005"><path d="m426.605 149.217-47.16-47.161c-6.511-6.511-17.068-6.511-23.58 0-6.512 6.511-6.512 17.068 0 23.58l47.161 47.161c3.256 3.256 7.523 4.884 11.789 4.884s8.535-1.628 11.789-4.884c6.513-6.511 6.513-17.069.001-23.58z"/><path d="m497.35 125.638-94.323-94.324c-9.447-9.447-22.009-14.652-35.371-14.652s-25.922 5.203-35.37 14.652L14.628 348.973c-19.504 19.504-19.504 51.237 0 70.741l70.741 70.741a16.676 16.676 0 0 0 11.791 4.884l47.165-.004c4.423 0 8.664-1.757 11.789-4.885a16.68 16.68 0 0 0 4.883-11.789l-.003-30.482 30.487-.001c9.208 0 16.673-7.464 16.674-16.673l.003-30.493 30.49-.001a16.671 16.671 0 0 0 16.674-16.676l-.004-30.477h30.484a16.676 16.676 0 0 0 16.673-16.675l-.001-30.482 30.482.002h.001a16.675 16.675 0 0 0 16.673-16.672l.001-33.371 37.136-7.084c8.437 5.719 18.241 8.59 28.052 8.59 12.809 0 25.619-4.877 35.37-14.627l47.161-47.161c9.448-9.447 14.652-22.009 14.652-35.37 0-13.363-5.205-25.924-14.652-35.37zM329.832 226.486a16.674 16.674 0 0 0-13.549 16.377l-.001 30.491-30.484-.002h-.001a16.676 16.676 0 0 0-16.673 16.675l.001 30.483H238.64a16.671 16.671 0 0 0-16.674 16.676l.004 30.477-30.486.001c-9.208 0-16.673 7.464-16.674 16.673l-.003 30.493-30.49.001a16.675 16.675 0 0 0-16.674 16.675l.003 30.483-23.583.002-65.857-65.856c-6.502-6.502-6.502-17.079 0-23.581l235.128-235.128 83.843 83.845-27.345 5.215zm143.935-53.691-47.161 47.161c-6.503 6.503-17.078 6.501-23.581 0L296.913 113.845l58.951-58.951a16.568 16.568 0 0 1 11.789-4.884c4.454 0 8.64 1.735 11.789 4.884l94.322 94.322a16.56 16.56 0 0 1 4.884 11.788 16.55 16.55 0 0 1-4.881 11.791z"/></svg>